<svg width="50" height="50" viewBox="0 0 50 50" fill="none" xmlns="http://www.w3.org/2000/svg">
<path d="M16.1458 5.20831C16.1458 4.34538 15.4463 3.64581 14.5833 3.64581C13.7204 3.64581 13.0208 4.34538 13.0208 5.20831V8.49844C10.0222 8.73854 8.05368 9.32783 6.60743 10.7741C5.16118 12.2203 4.57189 14.1889 4.33179 17.1875H45.6681C45.4281 14.1889 44.8387 12.2203 43.3925 10.7741C41.9462 9.32783 39.9777 8.73854 36.9792 8.49844V5.20831C36.9792 4.34538 36.2796 3.64581 35.4167 3.64581C34.5537 3.64581 33.8542 4.34538 33.8542 5.20831V8.36019C32.4681 8.33331 30.9146 8.33331 29.1667 8.33331H20.8333C19.0853 8.33331 17.5318 8.33331 16.1458 8.36019V5.20831Z" fill="black"/>
<path fill-rule="evenodd" clip-rule="evenodd" d="M4.16669 25C4.16669 23.2521 4.16669 21.6985 4.19356 20.3125H45.8065C45.8334 21.6985 45.8334 23.2521 45.8334 25V29.1667C45.8334 37.0233 45.8334 40.9519 43.3925 43.3925C40.9519 45.8333 37.0234 45.8333 29.1667 45.8333H20.8334C12.9766 45.8333 9.04825 45.8333 6.60746 43.3925C4.16669 40.9519 4.16669 37.0233 4.16669 29.1667V25ZM35.4167 29.1667C36.5673 29.1667 37.5 28.234 37.5 27.0833C37.5 25.9327 36.5673 25 35.4167 25C34.2661 25 33.3334 25.9327 33.3334 27.0833C33.3334 28.234 34.2661 29.1667 35.4167 29.1667ZM35.4167 37.5C36.5673 37.5 37.5 36.5673 37.5 35.4167C37.5 34.266 36.5673 33.3333 35.4167 33.3333C34.2661 33.3333 33.3334 34.266 33.3334 35.4167C33.3334 36.5673 34.2661 37.5 35.4167 37.5ZM27.0834 27.0833C27.0834 28.234 26.1506 29.1667 25 29.1667C23.8494 29.1667 22.9167 28.234 22.9167 27.0833C22.9167 25.9327 23.8494 25 25 25C26.1506 25 27.0834 25.9327 27.0834 27.0833ZM27.0834 35.4167C27.0834 36.5673 26.1506 37.5 25 37.5C23.8494 37.5 22.9167 36.5673 22.9167 35.4167C22.9167 34.266 23.8494 33.3333 25 33.3333C26.1506 33.3333 27.0834 34.266 27.0834 35.4167ZM14.5834 29.1667C15.7339 29.1667 16.6667 28.234 16.6667 27.0833C16.6667 25.9327 15.7339 25 14.5834 25C13.4328 25 12.5 25.9327 12.5 27.0833C12.5 28.234 13.4328 29.1667 14.5834 29.1667ZM14.5834 37.5C15.7339 37.5 16.6667 36.5673 16.6667 35.4167C16.6667 34.266 15.7339 33.3333 14.5834 33.3333C13.4328 33.3333 12.5 34.266 12.5 35.4167C12.5 36.5673 13.4328 37.5 14.5834 37.5Z" fill="black"/>
</svg>
