<svg width="48" height="48" viewBox="0 0 48 48" fill="none" xmlns="http://www.w3.org/2000/svg">
<path fill-rule="evenodd" clip-rule="evenodd" d="M4.50631 1.50631C5.47077 0.541834 6.7789 0 8.14286 0H28.7143C29.1689 0 29.605 0.180612 29.9265 0.502104L43.6409 14.2164C43.9622 14.5379 44.1429 14.9739 44.1429 15.4286V42.8571C44.1429 44.221 43.6011 45.5294 42.6367 46.4938C41.6722 47.4583 40.3639 48 39 48H8.14286C6.77887 48 5.47077 47.4583 4.50631 46.4938C3.54185 45.5294 3 44.221 3 42.8571V5.14286C3 3.7789 3.54185 2.47078 4.50631 1.50631ZM20.2468 20.4674C21.251 21.4716 21.251 23.0998 20.2468 24.104L15.208 29.1429L20.2468 34.1817C21.251 35.1861 21.251 36.8139 20.2468 37.8182C19.2427 38.8224 17.6145 38.8224 16.6103 37.8182L9.75315 30.9611C8.74896 29.9569 8.74896 28.3288 9.75315 27.3246L16.6103 20.4674C17.6145 19.4632 19.2427 19.4632 20.2468 20.4674ZM26.896 24.104C25.8918 23.0998 25.8918 21.4716 26.896 20.4674C27.9002 19.4632 29.5284 19.4632 30.5326 20.4674L37.3896 27.3246C38.3938 28.3288 38.3938 29.9569 37.3896 30.9611L30.5326 37.8182C29.5284 38.8224 27.9002 38.8224 26.896 37.8182C25.8918 36.8139 25.8918 35.1861 26.896 34.1817L31.9349 29.1429L26.896 24.104Z" fill="black"/>
</svg>
