<svg width="48" height="48" viewBox="0 0 48 48" fill="none" xmlns="http://www.w3.org/2000/svg">
<path d="M30.0068 7.85247C29.9138 7.75584 29.8018 7.67936 29.678 7.62775C29.5541 7.57615 29.421 7.55053 29.2868 7.55247C29.0259 7.5509 28.7747 7.65139 28.5868 7.83247L6.74685 29.6725C6.65312 29.7654 6.57873 29.876 6.52796 29.9979C6.47719 30.1198 6.45105 30.2505 6.45105 30.3825C6.45105 30.5145 6.47719 30.6452 6.52796 30.767C6.57873 30.8889 6.65312 30.9995 6.74685 31.0925L16.6268 40.9725C16.8176 41.1639 17.0766 41.2718 17.3468 41.2725C17.4776 41.2717 17.607 41.2448 17.7272 41.1932C17.8474 41.1417 17.9561 41.0667 18.0468 40.9725L39.8668 19.1525C40.0513 18.9622 40.1545 18.7075 40.1545 18.4425C40.1545 18.1774 40.0513 17.9228 39.8668 17.7325L30.0068 7.85247Z" fill="black"/>
<path d="M4.72684 33.4525C4.59822 33.3326 4.44081 33.2481 4.26988 33.207C4.09895 33.1659 3.9203 33.1697 3.75126 33.218C3.58223 33.2663 3.42854 33.3574 3.30512 33.4826C3.1817 33.6078 3.09273 33.7628 3.04684 33.9325L0.0268393 46.4725C-0.0131819 46.6399 -0.00837293 46.815 0.0407821 46.98C0.089937 47.145 0.181703 47.2942 0.306839 47.4125C0.427369 47.5344 0.57668 47.6239 0.740975 47.6729C0.90527 47.7218 1.07925 47.7286 1.24684 47.6925L13.8668 44.6725C14.0388 44.6316 14.1966 44.5449 14.3233 44.4217C14.4501 44.2985 14.5411 44.1432 14.5868 43.9725C14.6333 43.8022 14.6356 43.6229 14.5936 43.4514C14.5517 43.28 14.4667 43.122 14.3468 42.9925L4.72684 33.4525Z" fill="black"/>
<path d="M46.2669 5.69252L42.0269 1.45252C41.0837 0.521824 39.812 0 38.4869 0C37.1618 0 35.8901 0.521824 34.9469 1.45252L32.1269 4.29252C32.0312 4.3823 31.955 4.49074 31.9029 4.61113C31.8507 4.73153 31.8239 4.86133 31.8239 4.99252C31.8239 5.12371 31.8507 5.25352 31.9029 5.37391C31.955 5.49431 32.0312 5.60274 32.1269 5.69252L42.0269 15.6925C42.1167 15.7882 42.2251 15.8644 42.3455 15.9165C42.4659 15.9687 42.5957 15.9956 42.7269 15.9956C42.8581 15.9956 42.9879 15.9687 43.1083 15.9165C43.2287 15.8644 43.3371 15.7882 43.4269 15.6925L46.2669 12.7525C47.2012 11.8153 47.7258 10.5459 47.7258 9.22252C47.7258 7.89915 47.2012 6.62975 46.2669 5.69252Z" fill="black"/>
</svg>
