<svg width="48" height="48" viewBox="0 0 48 48" fill="none" xmlns="http://www.w3.org/2000/svg">
<path d="M32.048 3.90088C30.0046 1.69488 27.1507 0.47998 24.0008 0.47998C20.8339 0.47998 17.9706 1.68748 15.9368 3.87988C13.8809 6.09638 12.8792 9.10878 13.1144 12.3618C13.5805 18.7794 18.4641 24 24.0008 24C29.5373 24 34.4125 18.7804 34.8861 12.3639C35.1244 9.14038 34.1164 6.13418 32.048 3.90088Z" fill="black"/>
<path d="M42.48 47.5197H5.51999C5.03619 47.5261 4.55709 47.4244 4.11759 47.2224C3.67799 47.0201 3.28909 46.7225 2.97899 46.3511C2.29649 45.5353 2.02139 44.4212 2.22509 43.2946C3.11129 38.3785 5.87699 34.2488 10.2241 31.3497C14.086 28.7763 18.9779 27.3598 24 27.3598C29.0221 27.3598 33.9141 28.7773 37.776 31.3497C42.123 34.2478 44.8887 38.3774 45.7749 43.2936C45.9786 44.4202 45.7035 45.5343 45.021 46.3501C44.7111 46.7217 44.3221 47.0194 43.8826 47.2218C43.443 47.4241 42.9639 47.526 42.48 47.5197Z" fill="black"/>
</svg>
