<svg width="48" height="48" viewBox="0 0 48 48" fill="none" xmlns="http://www.w3.org/2000/svg">
<path d="M32.352 2.96912C34.8034 0.946265 38.4549 1.22055 40.3131 3.79541C40.92 4.63198 41.5714 5.58855 42.864 7.20684C44.7012 9.52436 45.6993 12.3959 45.6956 15.3533C45.6918 18.3107 44.6865 21.1797 42.8434 23.4925C40.0389 26.9725 37.0971 30.48 33.8057 33.7714C30.5177 37.0594 27.0069 40.0011 23.5303 42.8091C21.2177 44.6528 18.3486 45.6585 15.391 45.6622C12.4334 45.666 9.56184 44.6675 7.24457 42.8297C5.53714 41.4651 4.57714 40.824 3.71314 40.1965C1.23085 38.3931 0.891426 34.8823 2.82171 32.4925C4.632 30.2468 6.69257 28.1177 8.66057 26.04C9.30323 25.3745 10.1759 24.9797 11.1 24.9364C12.0241 24.893 12.9299 25.2044 13.632 25.8068C14.5406 26.5817 15.2571 27.1645 16.8891 28.6971C22.2994 25.4845 25.5771 22.1657 28.7349 16.8548C27.192 15.2125 26.6091 14.496 25.8274 13.5771C25.2256 12.8782 24.915 11.975 24.9597 11.0538C25.0043 10.1326 25.4009 9.26368 26.0674 8.62626C28.1074 6.71998 30.1851 4.75541 32.352 2.96912Z" fill="black"/>
</svg>
